C:\Users\r0593348\3dpredictsim\Results\Batchsim_tmt_linear\Pog_s1_tmt_bCst_d05_k1000_ig24_pas_GRF.mot
nRows=15
nColumns=19

name C:\Users\r0593348\3dpredictsim\Results\Batchsim_tmt_linear\Pog_s1_tmt_bCst_d05_k1000_ig24_pas_GRF.mot
datacolumns 19
datarows 15
range 0.5525861680 0.7073102950
endheader
time 	ground_force_vx	ground_force_vy	ground_force_vz	ground_force_px	ground_force_py	ground_force_pz	1_ground_force_vx	1_ground_force_vy	1_ground_force_vz	1_ground_force_px	1_ground_force_py	1_ground_force_pz	ground_torque_x	ground_torque_y	ground_torque_z	1_ground_torque_x	1_ground_torque_y	1_ground_torque_z
        0.5525861680	       98.6830088747	      490.3468224151	        3.7531793625	        0.3739237142	        0.0000000000	        0.0335383715	      -78.5898560542	       64.2245280552	      -29.8323294913	        0.8579328975	        0.0000000000	       -0.0381578125	        0.0000000000	        0.0000000000	        0.0000000000	        0.0000000000	        0.0000000000	        0.0000000000	
        0.5636378914	       80.2298286432	      408.1966668374	        8.5427828098	        0.3776831112	        0.0000000000	        0.0324334899	     -125.1372439466	      142.1499965134	      -74.4832624324	        0.8655515557	        0.0000000000	       -0.0357549367	        0.0000000000	        0.0000000000	        0.0000000000	        0.0000000000	        0.0000000000	        0.0000000000	
        0.5746896147	       60.7912871953	      319.0234708869	        9.5659282541	        0.3834964908	        0.0000000000	        0.0302361313	      -50.7877856919	      286.8766252018	      -33.8531339212	        0.8716137478	        0.0000000000	       -0.0333166615	        0.0000000000	        0.0000000000	        0.0000000000	        0.0000000000	        0.0000000000	        0.0000000000	
        0.5857413381	       31.2943590837	      213.1292648235	        5.9861749115	        0.3948304333	        0.0000000000	        0.0249648210	      -45.9316425182	      456.9705307124	       -4.0535079350	        0.8759438508	        0.0000000000	       -0.0334787028	        0.0000000000	        0.0000000000	        0.0000000000	        0.0000000000	        0.0000000000	        0.0000000000	
        0.5967930614	       10.9272151401	      139.1411363427	        8.4827821510	        0.4105059323	        0.0000000000	        0.0167013835	      -79.3884614385	      664.4173893422	        7.4185607003	        0.8844938463	        0.0000000000	       -0.0359969610	        0.0000000000	        0.0000000000	        0.0000000000	        0.0000000000	        0.0000000000	        0.0000000000	
        0.6078447848	        1.4696793784	      111.4989632613	       10.2684018414	        0.4099899866	        0.0000000000	        0.0171428846	     -105.3344950001	      806.2491018054	       12.8865309534	        0.8906421489	        0.0000000000	       -0.0377721132	        0.0000000000	        0.0000000000	        0.0000000000	        0.0000000000	        0.0000000000	        0.0000000000	
        0.6188965082	       -2.3475998575	       73.6522176060	        9.5064554498	        0.4104578763	        0.0000000000	        0.0171987492	     -114.0724971470	      862.9277220586	       14.1885206141	        0.8947194776	        0.0000000000	       -0.0388196788	        0.0000000000	        0.0000000000	        0.0000000000	        0.0000000000	        0.0000000000	        0.0000000000	
        0.6299482315	       -8.3895592736	       30.6673570605	        5.4574701345	        0.4101155252	        0.0000000000	        0.0171211633	     -110.8349364949	      863.5564227196	       14.1291843955	        0.8978600602	        0.0000000000	       -0.0394210768	        0.0000000000	        0.0000000000	        0.0000000000	        0.0000000000	        0.0000000000	        0.0000000000	
        0.6409999549	        0.1108029782	       -0.1109532414	       -0.0025949947	        0.0000000000	        0.0000000000	        0.0000000000	     -101.7841088167	      842.7801754761	       14.2839231603	        0.9010004691	        0.0000000000	       -0.0397164193	        0.0000000000	        0.0000000000	        0.0000000000	        0.0000000000	        0.0000000000	        0.0000000000	
        0.6520516782	        0.0001242248	       -0.0001024195	        0.0000070293	        0.0000000000	        0.0000000000	        0.0000000000	      -89.3557064193	      809.0728937009	       14.9602675134	        0.9042685967	        0.0000000000	       -0.0398261244	        0.0000000000	        0.0000000000	        0.0000000000	        0.0000000000	        0.0000000000	        0.0000000000	
        0.6631034016	        0.0000434258	       -0.0000311659	        0.0000032592	        0.0000000000	        0.0000000000	        0.0000000000	      -77.5469503840	      771.0133130571	       15.3226996803	        0.9079664218	        0.0000000000	       -0.0398468155	        0.0000000000	        0.0000000000	        0.0000000000	        0.0000000000	        0.0000000000	        0.0000000000	
        0.6741551250	        0.0003829001	       -0.0002462898	        0.0000321923	        0.0000000000	        0.0000000000	        0.0000000000	      -67.4829724986	      736.5060788591	       15.4053429749	        0.9122346407	        0.0000000000	       -0.0397517690	        0.0000000000	        0.0000000000	        0.0000000000	        0.0000000000	        0.0000000000	        0.0000000000	
        0.6852068483	        0.0055639885	       -0.0032799619	        0.0004966190	        0.0000000000	        0.0000000000	        0.0000000000	      -57.6086849259	      703.4196108923	       15.8584035282	        0.9164749199	        0.0000000000	       -0.0396484903	        0.0000000000	        0.0000000000	        0.0000000000	        0.0000000000	        0.0000000000	        0.0000000000	
        0.6962585717	       -0.0245277865	        0.0134533611	       -0.0022794004	        0.0000000000	        0.0000000000	        0.0000000000	      -47.9133917140	      672.3086497942	       16.3267526064	        0.9205502561	        0.0000000000	       -0.0396065162	        0.0000000000	        0.0000000000	        0.0000000000	        0.0000000000	        0.0000000000	        0.0000000000	
        0.7073102950	       -0.0173268919	        0.0089379313	       -0.0016634307	        0.0000000000	        0.0000000000	        0.0000000000	      -39.2613299846	      645.3898880246	       16.8447849760	        0.9246765283	        0.0000000000	       -0.0396185371	        0.0000000000	        0.0000000000	        0.0000000000	        0.0000000000	        0.0000000000	        0.0000000000	
